<svg xmlns="http://www.w3.org/2000/svg" xmlns:xlink="http://www.w3.org/1999/xlink" width="10" height="10" version="1.1" viewBox="0 0 10 10"><title>micro-indicator</title><desc>Created with Sketch.</desc><g id="Welcome" fill="none" fill-rule="evenodd" stroke="none" stroke-width="1"><g id="Artboard" fill="#000" transform="translate(-32.000000, -52.000000)"><g id="idicator-copy" transform="translate(33.000000, 52.000000)"><g id="Group-9"><path id="Oval-9" d="M3.5,2 C1.56700338,2 0,3.56700338 0,5.5 C0,5.77614237 0.223857625,6 0.5,6 C0.776142375,6 1,5.77614237 1,5.5 C1,4.11928813 2.11928813,3 3.5,3 C3.77614237,3 4,2.77614237 4,2.5 C4,2.22385763 3.77614237,2 3.5,2 Z" opacity=".7"/><polygon id="Rectangle-3" points="3 .5 5.5 2.5 3 4.5"/></g><g id="Group-9-Copy-2" transform="translate(5.000000, 7.000000) scale(-1, -1) translate(-5.000000, -7.000000) translate(2.000000, 4.000000)"><path id="Oval-9" d="M3.5,2 C1.56700338,2 0,3.56700338 0,5.5 C0,5.77614237 0.223857625,6 0.5,6 C0.776142375,6 1,5.77614237 1,5.5 C1,4.11928813 2.11928813,3 3.5,3 C3.77614237,3 4,2.77614237 4,2.5 C4,2.22385763 3.77614237,2 3.5,2 Z" opacity=".7"/><polygon id="Rectangle-3" points="3 .5 5.5 2.5 3 4.5"/></g></g></g></g></svg>