<svg xmlns="http://www.w3.org/2000/svg" xmlns:xlink="http://www.w3.org/1999/xlink" width="10" height="10" version="1.1" viewBox="0 0 10 10"><title>micro-add</title><desc>Created with Sketch.</desc><g id="Welcome" fill="none" fill-rule="evenodd" stroke="none" stroke-width="1"><g id="Artboard" fill="#000" transform="translate(-32.000000, -32.000000)"><path id="Combined-Shape" d="M36,36 L36,33.5 C36,33.2238576 36.2238576,33 36.5,33 C36.7761424,33 37,33.2238576 37,33.5 L37,36 L39.5,36 C39.7761424,36 40,36.2238576 40,36.5 C40,36.7761424 39.7761424,37 39.5,37 L37,37 L37,39.5 C37,39.7761424 36.7761424,40 36.5,40 C36.2238576,40 36,39.7761424 36,39.5 L36,37 L33.5,37 C33.2238576,37 33,36.7761424 33,36.5 C33,36.2238576 33.2238576,36 33.5,36 L36,36 Z"/></g></g></svg>