<svg xmlns="http://www.w3.org/2000/svg" xmlns:xlink="http://www.w3.org/1999/xlink" width="20" height="20" version="1.1" viewBox="0 0 20 20"><title>normal-clear</title><desc>Created with Sketch.</desc><g id="Welcome" fill="none" fill-rule="evenodd" stroke="none" stroke-width="1"><g id="Artboard" fill="#000" transform="translate(-138.000000, -11.000000)"><g id="Group-3-Copy" transform="translate(139.000000, 12.000000)"><circle id="Oval-2" cx="9" cy="9" r="9" opacity=".14"/><path id="Combined-Shape" d="M13.35,12.65 C13.55,12.85 13.55,13.17 13.35,13.35 C13.15,13.55 12.85,13.55 12.65,13.35 L9.25,9.95 L5.85,13.35 C5.65,13.55 5.33,13.55 5.15,13.35 C4.95,13.17 4.95,12.85 5.15,12.65 L8.55,9.25 L5.15,5.85 C4.95,5.65 4.95,5.35 5.15,5.15 C5.33,4.95 5.65,4.95 5.85,5.15 L9.25,8.55 L12.65,5.15 C12.85,4.95 13.15,4.95 13.35,5.15 C13.55,5.35 13.55,5.65 13.35,5.85 L9.95,9.25 L13.35,12.65 Z"/></g></g></g></svg>