<svg xmlns="http://www.w3.org/2000/svg" xmlns:xlink="http://www.w3.org/1999/xlink" width="20" height="20" version="1.1" viewBox="0 0 20 20"><title>tag</title><desc>Created with Sketch.</desc><g id="Page-3" fill="none" fill-rule="evenodd" stroke="none" stroke-width="1"><g id="Icons" fill="#000" transform="translate(-620.000000, -46.000000)"><path id="Path" d="M622.002929,50 L632.997771,50 C633.551287,50 634.283148,50.3397772 634.643427,50.7721119 L638.356573,55.2278881 C638.711928,55.6543137 638.716852,56.3397772 638.356573,56.7721119 L634.643427,61.2278881 C634.288072,61.6543137 633.54435,62 632.997771,62 L622.002929,62 C621.449027,62 621,61.5469637 621,61.0029699 L621,50.9970301 C621,50.4463856 621.437881,50 622.002929,50 Z" opacity=".09"/><path id="Rectangle-1309" d="M622.002929,50 L632.997771,50 C633.551287,50 634.283148,50.3397772 634.643427,50.7721119 L638.356573,55.2278881 C638.711928,55.6543137 638.716852,56.3397772 638.356573,56.7721119 L634.643427,61.2278881 C634.288072,61.6543137 633.54435,62 632.997771,62 L622.002929,62 C621.449027,62 621,61.5469637 621,61.0029699 L621,50.9970301 C621,50.4463856 621.437881,50 622.002929,50 Z M622,61.0029699 C622,60.9966842 633.549988,60.9980688 633.549988,60.9980688 L637.702576,56.0030918 L633.549988,51 L622.002929,51 C621.99442,51 622,61.0029699 622,61.0029699 Z"/><rect id="Rectangle-1424" width="1" height="4" x="624" y="54"/><rect id="Rectangle-1424-Copy" width="1" height="4" x="626" y="54"/></g></g></svg>