<svg xmlns="http://www.w3.org/2000/svg" xmlns:xlink="http://www.w3.org/1999/xlink" width="20" height="20" version="1.1" viewBox="0 0 20 20"><title>normal-more</title><desc>Created with Sketch.</desc><g id="Welcome" fill="none" fill-rule="evenodd" stroke="none" stroke-width="1"><g id="Artboard" fill="#000" transform="translate(-111.000000, -11.000000)"><g id="Group-3" transform="translate(112.000000, 12.000000)"><circle id="Oval-2" cx="9" cy="9" r="9" opacity=".14"/><path id="Combined-Shape" d="M9,14 C9.552285,14 10,13.552285 10,13 C10,12.447715 9.552285,12 9,12 C8.447715,12 8,12.447715 8,13 C8,13.552285 8.447715,14 9,14 Z M9,10 C9.552285,10 10,9.552285 10,9 C10,8.447715 9.552285,8 9,8 C8.447715,8 8,8.447715 8,9 C8,9.552285 8.447715,10 9,10 Z M9,6 C9.552285,6 10,5.552285 10,5 C10,4.447715 9.552285,4 9,4 C8.447715,4 8,4.447715 8,5 C8,5.552285 8.447715,6 9,6 Z"/></g></g></g></svg>