<svg xmlns="http://www.w3.org/2000/svg" xmlns:xlink="http://www.w3.org/1999/xlink" width="20" height="20" version="1.1" viewBox="0 0 20 20"><title>normal-search</title><desc>Created with Sketch.</desc><g id="Welcome" fill="none" fill-rule="evenodd" stroke="none" stroke-width="1"><g id="Artboard" fill="#000" transform="translate(-201.000000, -131.000000)"><path id="Oval" d="M213.871473,143.164366 L216.853553,146.146447 C217.048816,146.341709 217.048816,146.658291 216.853553,146.853553 C216.658291,147.048816 216.341709,147.048816 216.146447,146.853553 L213.164366,143.871473 C212.302431,144.576817 211.200635,145 210,145 C207.238576,145 205,142.761424 205,140 C205,137.238576 207.238576,135 210,135 C212.761424,135 215,137.238576 215,140 C215,141.200635 214.576817,142.302431 213.871473,143.164366 Z M210,144 C212.209139,144 214,142.209139 214,140 C214,137.790861 212.209139,136 210,136 C207.790861,136 206,137.790861 206,140 C206,142.209139 207.790861,144 210,144 Z"/></g></g></svg>